<svg xmlns="http://www.w3.org/2000/svg" width="136.323" height="136.323" viewBox="0 0 136.323 136.323">
  <path id="Icon_awesome-dribbble" data-name="Icon awesome-dribbble" d="M68.724.562a68.162,68.162,0,1,0,68.162,68.162A68.239,68.239,0,0,0,68.724.562ZM113.791,32a57.943,57.943,0,0,1,13.147,36.267c-1.92-.406-21.168-4.31-40.54-1.874-1.581-3.859-3.073-7.254-5.117-11.437C102.807,46.163,112.563,33.656,113.791,32Zm-6.472-6.733c-1.047,1.492-9.811,13.271-30.514,21.031A310.77,310.77,0,0,0,55.081,12.211a58.07,58.07,0,0,1,52.237,13.052ZM43.972,16.124A371.488,371.488,0,0,1,65.557,49.8a217.162,217.162,0,0,1-53.824,7.093A58.434,58.434,0,0,1,43.972,16.124ZM10.5,68.813c0-.6.012-1.188.03-1.779,2.547.052,30.761.416,59.835-8.285,1.667,3.262,3.259,6.573,4.72,9.88-21.053,5.93-40.181,22.957-49.618,39.112A57.987,57.987,0,0,1,10.5,68.813Zm22.484,45.93c6.082-12.432,22.586-28.48,46.058-36.487a242.006,242.006,0,0,1,12.42,44.151,58.1,58.1,0,0,1-58.478-7.663Zm68.266,2.333a251.285,251.285,0,0,0-11.31-41.511,85.454,85.454,0,0,1,36.265,2.489,58.322,58.322,0,0,1-24.955,39.022Z" transform="translate(-0.563 -0.563)"/>
</svg>
