<svg xmlns="http://www.w3.org/2000/svg" width="136.326" height="136.323" viewBox="0 0 136.326 136.323">
  <path id="Icon_awesome-linkedin-in" data-name="Icon awesome-linkedin-in" d="M30.515,136.324H2.252V45.308H30.515ZM16.368,32.892A16.446,16.446,0,1,1,32.737,16.369,16.506,16.506,0,0,1,16.368,32.892ZM136.3,136.324h-28.2V92.018c0-10.559-.213-24.1-14.695-24.1-14.695,0-16.946,11.472-16.946,23.34v45.067H48.219V45.308H75.326V57.723h.4c3.773-7.151,12.991-14.7,26.742-14.7,28.6,0,33.862,18.836,33.862,43.3v50Z" transform="translate(0 -0.001)"/>
</svg>
