<svg xmlns="http://www.w3.org/2000/svg" width="136.323" height="136.323" viewBox="0 0 136.323 136.323">
  <path id="Icon_ionic-logo-whatsapp" data-name="Icon ionic-logo-whatsapp" d="M71.648,2.25C34.689,2.25,4.725,31.98,4.725,68.656a65.72,65.72,0,0,0,9.6,34.29L2.25,138.573,39.3,126.8a67.06,67.06,0,0,0,32.346,8.26c36.963,0,66.926-29.734,66.926-66.406S108.611,2.25,71.648,2.25Zm33.278,91.626c-1.574,3.9-8.695,7.465-11.837,7.629s-3.228,2.433-20.339-5-27.4-25.513-28.214-26.677-6.628-9.447-6.314-17.787a18.963,18.963,0,0,1,6.513-13.914,6.554,6.554,0,0,1,4.635-1.951c1.347-.022,2.22-.04,3.217,0s2.493-.208,3.788,3.237,4.395,11.914,4.791,12.777a3.1,3.1,0,0,1,.031,2.973,11.622,11.622,0,0,1-1.814,2.764c-.893.958-1.879,2.143-2.675,2.875-.889.811-1.817,1.7-.882,3.429a51.211,51.211,0,0,0,9.062,12.091,46.693,46.693,0,0,0,13.419,8.921c1.678.914,2.68.812,3.72-.283s4.455-4.791,5.659-6.442,2.331-1.331,3.877-.709,9.785,5.038,11.464,5.949,2.8,1.378,3.2,2.1S106.5,89.972,104.926,93.876Z" transform="translate(-2.25 -2.25)"/>
</svg>
